<svg width="25" height="24" viewBox="0 0 25 24" fill="none" xmlns="http://www.w3.org/2000/svg">
<path d="M18.9991 3.76465H16.9661C16.6545 3.76487 16.3527 3.87349 16.1125 4.07188C15.8722 4.27028 15.7085 4.54608 15.6494 4.85199C15.5903 5.15789 15.6394 5.47484 15.7884 5.74847C15.9374 6.02209 16.177 6.23535 16.4661 6.35165L18.5301 7.17765C18.8191 7.29395 19.0587 7.5072 19.2077 7.78083C19.3567 8.05445 19.4059 8.3714 19.3467 8.67731C19.2876 8.98322 19.1239 9.25902 18.8837 9.45742C18.6434 9.65581 18.3416 9.76443 18.0301 9.76465H17.4991M17.4991 3.76465V3.01465" stroke="#1A1A1A" stroke-width="1.5" stroke-linecap="round" stroke-linejoin="round"/>
<path d="M18.2799 12.7146C19.3901 12.5687 20.4374 12.1152 21.3033 11.4052C22.1692 10.6952 22.8192 9.75713 23.1797 8.69701C23.5403 7.63689 23.5971 6.49703 23.3436 5.40633C23.0901 4.31563 22.5366 3.3176 21.7455 2.52511C20.9544 1.73261 19.9573 1.17726 18.8671 0.921855C17.7769 0.666451 16.6369 0.721183 15.5761 1.07986C14.5154 1.43854 13.5761 2.08685 12.8646 2.95149C12.1531 3.81613 11.6977 4.8626 11.5499 5.97257M15.9999 15.7646C15.9999 13.7754 15.2097 11.8678 13.8032 10.4613C12.3966 9.05474 10.489 8.26457 8.49985 8.26457M2.49985 11.2646C1.8919 12.0834 1.45732 13.0176 1.22268 14.01C0.98805 15.0025 0.958287 16.0324 1.13522 17.0368C1.31215 18.0411 1.69205 18.9988 2.25171 19.8514C2.81136 20.7039 3.53901 21.4334 4.39017 21.9951C5.24133 22.5569 6.19811 22.9392 7.20203 23.1186C8.20595 23.298 9.23592 23.2708 10.229 23.0386C11.222 22.8064 12.1573 22.3742 12.9776 21.7683C13.7979 21.1623 14.486 20.3955 14.9999 19.5146" stroke="#1A1A1A" stroke-width="1.5" stroke-linecap="round" stroke-linejoin="round"/>
<path d="M9.25 15.7646C9.64782 15.7646 10.0294 15.6066 10.3107 15.3253C10.592 15.044 10.75 14.6625 10.75 14.2646C10.75 13.8668 10.592 13.4853 10.3107 13.204C10.0294 12.9227 9.64782 12.7646 9.25 12.7646H7V18.7646H9.25C9.64782 18.7646 10.0294 18.6066 10.3107 18.3253C10.592 18.044 10.75 17.6625 10.75 17.2646C10.75 16.8668 10.592 16.4853 10.3107 16.204C10.0294 15.9227 9.64782 15.7646 9.25 15.7646ZM9.25 15.7646H7M8.5 12.7646V11.2646M8.5 18.7646V20.2646M1 4.51465L3.25 8.26465L7 6.01465" stroke="#1A1A1A" stroke-width="1.5" stroke-linecap="round" stroke-linejoin="round"/>
<path d="M8.43896 0.915039C7.05043 1.42102 5.86632 2.36871 5.06841 3.61265C4.27049 4.85658 3.90287 6.328 4.02196 7.80104M23.5 19.515L21.25 15.765L17.5 18.015" stroke="#1A1A1A" stroke-width="1.5" stroke-linecap="round" stroke-linejoin="round"/>
<path d="M16.0605 23.1145C17.4487 22.6086 18.6326 21.6612 19.4305 20.4177C20.2283 19.1741 20.5962 17.7032 20.4775 16.2305" stroke="#1A1A1A" stroke-width="1.5" stroke-linecap="round" stroke-linejoin="round"/>
</svg>
