<svg width="24" height="24" viewBox="0 0 24 24" fill="none" xmlns="http://www.w3.org/2000/svg">
<path d="M8.22132 13.8707C8.05707 14.7707 7.40607 18.9662 7.21332 20.152C7.19907 20.2367 7.16607 20.269 7.07232 20.269H3.57582C3.49382 20.2694 3.41269 20.2521 3.33797 20.2183C3.26326 20.1845 3.19671 20.135 3.14289 20.0731C3.08906 20.0112 3.04922 19.9385 3.02609 19.8598C3.00295 19.7811 2.99706 19.6984 3.00882 19.6172L5.75607 2.18424C5.79391 1.9629 5.90873 1.76204 6.08027 1.61713C6.2518 1.47222 6.46902 1.39257 6.69357 1.39224C13.8328 1.39224 14.4328 1.21899 16.2561 1.92699C19.0731 3.01899 19.3311 5.65374 18.3186 8.50374C17.3106 11.4385 14.9203 12.6992 11.7516 12.7367C9.71757 12.7697 8.49357 12.4082 8.22207 13.8707H8.22132ZM19.7391 7.12524C19.6543 7.06449 19.6221 7.04049 19.5981 7.18599C19.4988 7.72027 19.3609 8.24664 19.1856 8.76099C17.3151 14.0957 12.1311 13.6315 9.59982 13.6315C9.31407 13.6315 9.12657 13.786 9.08907 14.0717C8.03007 20.653 7.81857 22.0262 7.81857 22.0262C7.77132 22.3592 7.98282 22.6307 8.31507 22.6307H11.2918C11.6953 22.6307 12.0276 22.3352 12.1078 21.9325C12.1408 21.6797 12.0561 22.2182 12.7828 17.653C12.9988 16.6217 13.4533 16.7297 14.1561 16.7297C17.4846 16.7297 20.0811 15.3797 20.8543 11.4655C21.1588 9.83424 21.0703 8.11824 19.7391 7.12449V7.12524Z" fill="#56A9E1"/>
</svg>
