<svg width="32" height="32" viewBox="0 0 32 32" fill="none" xmlns="http://www.w3.org/2000/svg">
<path d="M31.8186 30.0529C29.4778 25.8445 25.8705 22.8268 21.6607 21.3963C23.743 20.1072 25.3609 18.1429 26.2658 15.8051C27.1707 13.4672 27.3126 10.8851 26.6698 8.45526C26.0269 6.02542 24.6349 3.88219 22.7073 2.35472C20.7798 0.827255 18.4234 0 16 0C13.5766 0 11.2202 0.827255 9.29267 2.35472C7.36513 3.88219 5.97305 6.02542 5.3302 8.45526C4.68736 10.8851 4.82928 13.4672 5.73419 15.8051C6.63911 18.1429 8.25696 20.1072 10.3393 21.3963C6.12953 22.8252 2.52224 25.8429 0.181419 30.0529C0.0955774 30.1984 0.038639 30.3604 0.0139637 30.5292C-0.0107116 30.698 -0.00262404 30.8702 0.0377492 31.0357C0.0781224 31.2013 0.149964 31.3567 0.249034 31.4928C0.348104 31.629 0.472396 31.7432 0.614578 31.8286C0.75676 31.914 0.91395 31.9689 1.07687 31.9901C1.2398 32.0113 1.40516 31.9984 1.5632 31.952C1.72123 31.9057 1.86875 31.8269 1.99703 31.7204C2.12532 31.6138 2.23178 31.4816 2.31013 31.3315C5.2058 26.1274 10.3239 23.0202 16 23.0202C21.6761 23.0202 26.7942 26.1274 29.6899 31.3315C29.7682 31.4816 29.8747 31.6138 30.003 31.7204C30.1313 31.8269 30.2788 31.9057 30.4368 31.952C30.5948 31.9984 30.7602 32.0113 30.9231 31.9901C31.086 31.9689 31.2432 31.914 31.3854 31.8286C31.5276 31.7432 31.6519 31.629 31.751 31.4928C31.85 31.3567 31.9219 31.2013 31.9622 31.0357C32.0026 30.8702 32.0107 30.698 31.986 30.5292C31.9614 30.3604 31.9044 30.1984 31.8186 30.0529ZM7.39292 11.5123C7.39292 9.74202 7.89772 8.01151 8.84348 6.53959C9.78923 5.06767 11.1335 3.92044 12.7062 3.24299C14.279 2.56554 16.0096 2.38829 17.6792 2.73365C19.3488 3.07901 20.8824 3.93148 22.0861 5.18324C23.2898 6.43501 24.1096 8.02986 24.4417 9.76611C24.7738 11.5024 24.6034 13.302 23.9519 14.9375C23.3005 16.5731 22.1973 17.9709 20.7818 18.9545C19.3664 19.938 17.7023 20.4629 16 20.4629C13.718 20.4604 11.5302 19.5165 9.91657 17.8385C8.30296 16.1605 7.39536 13.8854 7.39292 11.5123Z" fill="#1E1E1E"/>
</svg>
