<svg width="36" height="37" viewBox="0 0 36 37" fill="none" xmlns="http://www.w3.org/2000/svg">
<rect y="0.5" width="36" height="36" rx="18" fill="#2ECC71"/>
<path d="M23.4975 24.9851L26.6281 15.5937C27.8764 11.8487 28.5006 9.97624 27.5122 8.98782C26.5237 7.99939 24.6511 8.62356 20.906 9.87189L11.5748 12.9822C9.49295 13.6761 8.45203 14.0231 8.13608 14.7864C8.06182 14.9658 8.01692 15.156 8.00311 15.3496C7.94433 16.1737 8.72018 16.9495 10.2719 18.5011L10.5545 18.7837C10.8092 19.0384 10.9365 19.1658 11.0328 19.3075C11.2227 19.5871 11.3305 19.9143 11.3439 20.2519C11.3508 20.4232 11.324 20.6013 11.2706 20.9574C11.0749 22.2612 10.977 22.9131 11.0923 23.4147C11.322 24.4146 12.096 25.1995 13.0926 25.4433C13.5925 25.5656 14.2458 25.477 15.5522 25.2997L15.6236 25.29C15.9919 25.24 16.1761 25.215 16.3529 25.2257C16.6738 25.245 16.9838 25.3496 17.251 25.5285C17.3981 25.6271 17.5295 25.7585 17.7923 26.0213L18.0436 26.2725C19.5539 27.7828 20.309 28.5379 21.1101 28.4985C21.3309 28.4877 21.5479 28.4365 21.7503 28.3474C22.4844 28.0244 22.8221 27.0113 23.4975 24.9851Z" stroke="white" stroke-width="1.5"/>
<path d="M12 24.5L27 9.5" stroke="white" stroke-width="1.5" stroke-linecap="round"/>
</svg>
