<svg width="104" height="50" viewBox="0 0 104 50" fill="none" xmlns="http://www.w3.org/2000/svg">
<rect width="104" height="49" transform="translate(0 0.5)" fill="white"/>
<path d="M61.8718 22.7559C62.9118 22.7559 63.8478 22.9159 64.6798 23.2359C65.5278 23.5559 66.2558 24.0199 66.8638 24.6279C67.4718 25.2199 67.9358 25.9239 68.2558 26.7399C68.5918 27.5559 68.7598 28.4599 68.7598 29.4519C68.7598 30.7159 68.4958 31.8279 67.9678 32.7879C67.4558 33.7319 66.7518 34.4679 65.8558 34.9959C64.9598 35.5239 63.9598 35.7879 62.8558 35.7879C62.4238 35.7879 62.0158 35.7399 61.6318 35.6439C61.2478 35.5479 60.8958 35.4119 60.5758 35.2359C60.2558 35.0439 59.9758 34.8039 59.7358 34.5159H59.5918V40.5879H54.9838V29.4999C54.9838 28.1399 55.2718 26.9559 55.8478 25.9479C56.4238 24.9399 57.2318 24.1559 58.2718 23.5959C59.3118 23.0359 60.5118 22.7559 61.8718 22.7559ZM61.8718 26.7879C61.4558 26.7879 61.0798 26.8919 60.7438 27.0999C60.4078 27.3079 60.1438 27.5959 59.9518 27.9639C59.7758 28.3319 59.6878 28.7639 59.6878 29.2599C59.6878 29.7079 59.7758 30.1159 59.9518 30.4839C60.1438 30.8359 60.4078 31.1159 60.7438 31.3239C61.0798 31.5319 61.4558 31.6359 61.8718 31.6359C62.3038 31.6359 62.6798 31.5319 62.9998 31.3239C63.3358 31.1159 63.5918 30.8359 63.7678 30.4839C63.9598 30.1159 64.0558 29.7079 64.0558 29.2599C64.0558 28.7639 63.9598 28.3319 63.7678 27.9639C63.5918 27.5959 63.3358 27.3079 62.9998 27.0999C62.6798 26.8919 62.3038 26.7879 61.8718 26.7879Z" fill="#3498DB"/>
<path fill-rule="evenodd" clip-rule="evenodd" d="M44.2398 35.8119C43.1998 35.8119 42.2638 35.5479 41.4318 35.0199C40.5998 34.4919 39.9438 33.7639 39.4638 32.8359C38.9838 31.8919 38.7438 30.7959 38.7438 29.5479C38.7438 28.2199 39.0398 27.0519 39.6318 26.0439C40.2238 25.0199 41.0398 24.2199 42.0798 23.6439C43.1358 23.0679 44.3598 22.7799 45.7518 22.7799C47.1118 22.7799 48.2958 23.0599 49.3038 23.6199C50.3118 24.1639 51.0958 24.9319 51.6558 25.9239C52.2318 26.8999 52.5198 28.0359 52.5198 29.3319V35.4999H48.1518V33.6519H48.0078C47.7998 34.0839 47.5198 34.4679 47.1678 34.8039C46.8318 35.1239 46.4238 35.3719 45.9438 35.5479C45.4638 35.7239 44.8958 35.8119 44.2398 35.8119ZM46.7838 31.4679C46.4638 31.6759 46.0878 31.7799 45.6558 31.7799C45.2398 31.7799 44.8638 31.6759 44.5278 31.4679C44.1918 31.2599 43.9278 30.9719 43.7358 30.6039C43.5598 30.2199 43.4718 29.7879 43.4718 29.3079C43.4718 28.8439 43.5598 28.4359 43.7358 28.0839C43.9278 27.7319 44.1918 27.4519 44.5278 27.2439C44.8638 27.0359 45.2398 26.9319 45.6558 26.9319C46.0878 26.9319 46.4638 27.0359 46.7838 27.2439C47.1198 27.4519 47.3758 27.7319 47.5518 28.0839C47.7438 28.4359 47.8398 28.8439 47.8398 29.3079C47.8398 29.7879 47.7438 30.2199 47.5518 30.6039C47.3758 30.9719 47.1198 31.2599 46.7838 31.4679Z" fill="#3498DB"/>
<path fill-rule="evenodd" clip-rule="evenodd" d="M76.2398 35.8119C75.1998 35.8119 74.2638 35.5479 73.4318 35.0199C72.5998 34.4919 71.9438 33.7639 71.4638 32.8359C70.9838 31.8919 70.7438 30.7959 70.7438 29.5479C70.7438 28.2199 71.0398 27.0519 71.6318 26.0439C72.2238 25.0199 73.0398 24.2199 74.0798 23.6439C75.1358 23.0679 76.3598 22.7799 77.7518 22.7799C79.1118 22.7799 80.2958 23.0599 81.3038 23.6199C82.3118 24.1639 83.0958 24.9319 83.6558 25.9239C84.2318 26.8999 84.5198 28.0359 84.5198 29.3319V35.4999H80.1518V33.6519H80.0078C79.7998 34.0839 79.5198 34.4679 79.1678 34.8039C78.8318 35.1239 78.4238 35.3719 77.9438 35.5479C77.4638 35.7239 76.8958 35.8119 76.2398 35.8119ZM78.7838 31.4679C78.4638 31.6759 78.0878 31.7799 77.6558 31.7799C77.2398 31.7799 76.8638 31.6759 76.5278 31.4679C76.1918 31.2599 75.9278 30.9719 75.7358 30.6039C75.5598 30.2199 75.4718 29.7879 75.4718 29.3079C75.4718 28.8439 75.5598 28.4359 75.7358 28.0839C75.9278 27.7319 76.1918 27.4519 76.5278 27.2439C76.8638 27.0359 77.2398 26.9319 77.6558 26.9319C78.0878 26.9319 78.4638 27.0359 78.7838 27.2439C79.1198 27.4519 79.3758 27.7319 79.5518 28.0839C79.7438 28.4359 79.8398 28.8439 79.8398 29.3079C79.8398 29.7879 79.7438 30.2199 79.5518 30.6039C79.3758 30.9719 79.1198 31.2599 78.7838 31.4679Z" fill="#3498DB"/>
<path d="M15.2517 21.7073L29.1164 21.7075C28.8094 40.6582 25.4097 39.2929 10.5 35.2076C26.1349 42.9938 36.3666 43.0067 37.1164 22.1055L50.2521 21.7071C50.2521 21.7071 52.7537 22.2108 50.2528 19.7075C47.7518 17.2043 37.4998 14.9998 37.4998 14.9998C39.5518 1.18534 30.0351 1.92648 29.9998 15.4998C29.9998 15.4998 15.2517 18.7056 13.2509 20.2065C11.25 21.7074 15.2517 21.7073 15.2517 21.7073Z" fill="url(#paint0_linear_643_626)"/>
<defs>
<linearGradient id="paint0_linear_643_626" x1="-91.8215" y1="40.5879" x2="47.5099" y2="40.5879" gradientUnits="userSpaceOnUse">
<stop offset="0.845271" stop-color="#3498DB"/>
<stop offset="1" stop-color="#2ECC71"/>
</linearGradient>
</defs>
</svg>
