<svg width="104" height="49" viewBox="0 0 104 49" fill="none" xmlns="http://www.w3.org/2000/svg">
<rect width="104" height="49" fill="white"/>
<path d="M61.872 22.2559C62.912 22.2559 63.848 22.4159 64.68 22.7359C65.528 23.0559 66.256 23.5199 66.864 24.1279C67.472 24.7199 67.936 25.4239 68.256 26.2399C68.592 27.0559 68.76 27.9599 68.76 28.9519C68.76 30.2159 68.496 31.3279 67.968 32.2879C67.456 33.2319 66.752 33.9679 65.856 34.4959C64.96 35.0239 63.96 35.2879 62.856 35.2879C62.424 35.2879 62.016 35.2399 61.632 35.1439C61.248 35.0479 60.896 34.9119 60.576 34.7359C60.256 34.5439 59.976 34.3039 59.736 34.0159H59.592V40.0879H54.984V28.9999C54.984 27.6399 55.272 26.4559 55.848 25.4479C56.424 24.4399 57.232 23.6559 58.272 23.0959C59.312 22.5359 60.512 22.2559 61.872 22.2559ZM61.872 26.2879C61.456 26.2879 61.08 26.3919 60.744 26.5999C60.408 26.8079 60.144 27.0959 59.952 27.4639C59.776 27.8319 59.688 28.2639 59.688 28.7599C59.688 29.2079 59.776 29.6159 59.952 29.9839C60.144 30.3359 60.408 30.6159 60.744 30.8239C61.08 31.0319 61.456 31.1359 61.872 31.1359C62.304 31.1359 62.68 31.0319 63 30.8239C63.336 30.6159 63.592 30.3359 63.768 29.9839C63.96 29.6159 64.056 29.2079 64.056 28.7599C64.056 28.2639 63.96 27.8319 63.768 27.4639C63.592 27.0959 63.336 26.8079 63 26.5999C62.68 26.3919 62.304 26.2879 61.872 26.2879Z" fill="#3498DB"/>
<path fill-rule="evenodd" clip-rule="evenodd" d="M44.24 35.3119C43.2 35.3119 42.264 35.0479 41.432 34.5199C40.6 33.9919 39.944 33.2639 39.464 32.3359C38.984 31.3919 38.744 30.2959 38.744 29.0479C38.744 27.7199 39.04 26.5519 39.632 25.5439C40.224 24.5199 41.04 23.7199 42.08 23.1439C43.136 22.5679 44.36 22.2799 45.752 22.2799C47.112 22.2799 48.296 22.5599 49.304 23.1199C50.312 23.6639 51.096 24.4319 51.656 25.4239C52.232 26.3999 52.52 27.5359 52.52 28.8319V34.9999H48.152V33.1519H48.008C47.8 33.5839 47.52 33.9679 47.168 34.3039C46.832 34.6239 46.424 34.8719 45.944 35.0479C45.464 35.2239 44.896 35.3119 44.24 35.3119ZM46.784 30.9679C46.464 31.1759 46.088 31.2799 45.656 31.2799C45.24 31.2799 44.864 31.1759 44.528 30.9679C44.192 30.7599 43.928 30.4719 43.736 30.1039C43.56 29.7199 43.472 29.2879 43.472 28.8079C43.472 28.3439 43.56 27.9359 43.736 27.5839C43.928 27.2319 44.192 26.9519 44.528 26.7439C44.864 26.5359 45.24 26.4319 45.656 26.4319C46.088 26.4319 46.464 26.5359 46.784 26.7439C47.12 26.9519 47.376 27.2319 47.552 27.5839C47.744 27.9359 47.84 28.3439 47.84 28.8079C47.84 29.2879 47.744 29.7199 47.552 30.1039C47.376 30.4719 47.12 30.7599 46.784 30.9679Z" fill="#3498DB"/>
<path fill-rule="evenodd" clip-rule="evenodd" d="M76.24 35.3119C75.2 35.3119 74.264 35.0479 73.432 34.5199C72.6 33.9919 71.944 33.2639 71.464 32.3359C70.984 31.3919 70.744 30.2959 70.744 29.0479C70.744 27.7199 71.04 26.5519 71.632 25.5439C72.224 24.5199 73.04 23.7199 74.08 23.1439C75.136 22.5679 76.36 22.2799 77.752 22.2799C79.112 22.2799 80.296 22.5599 81.304 23.1199C82.312 23.6639 83.096 24.4319 83.656 25.4239C84.232 26.3999 84.52 27.5359 84.52 28.8319V34.9999H80.152V33.1519H80.008C79.8 33.5839 79.52 33.9679 79.168 34.3039C78.832 34.6239 78.424 34.8719 77.944 35.0479C77.464 35.2239 76.896 35.3119 76.24 35.3119ZM78.784 30.9679C78.464 31.1759 78.088 31.2799 77.656 31.2799C77.24 31.2799 76.864 31.1759 76.528 30.9679C76.192 30.7599 75.928 30.4719 75.736 30.1039C75.56 29.7199 75.472 29.2879 75.472 28.8079C75.472 28.3439 75.56 27.9359 75.736 27.5839C75.928 27.2319 76.192 26.9519 76.528 26.7439C76.864 26.5359 77.24 26.4319 77.656 26.4319C78.088 26.4319 78.464 26.5359 78.784 26.7439C79.12 26.9519 79.376 27.2319 79.552 27.5839C79.744 27.9359 79.84 28.3439 79.84 28.8079C79.84 29.2879 79.744 29.7199 79.552 30.1039C79.376 30.4719 79.12 30.7599 78.784 30.9679Z" fill="#3498DB"/>
<path d="M15.2519 21.2073L29.1166 21.2075C28.8096 40.1582 25.41 38.7929 10.5002 34.7076C26.1351 42.4938 36.3669 42.5067 37.1166 21.6055L50.2524 21.2071C50.2524 21.2071 52.754 21.7108 50.253 19.2075C47.752 16.7043 37.5 14.4998 37.5 14.4998C39.5521 0.685338 30.0353 1.42648 30 14.9998C30 14.9998 15.252 18.2056 13.2511 19.7065C11.2503 21.2074 15.2519 21.2073 15.2519 21.2073Z" fill="url(#paint0_linear_2003_417)"/>
<defs>
<linearGradient id="paint0_linear_2003_417" x1="-91.8212" y1="40.0879" x2="47.5101" y2="40.0879" gradientUnits="userSpaceOnUse">
<stop offset="0.845271" stop-color="#3498DB"/>
<stop offset="1" stop-color="#2ECC71"/>
</linearGradient>
</defs>
</svg>
