<svg width="36" height="36" viewBox="0 0 36 36" fill="none" xmlns="http://www.w3.org/2000/svg">
<rect width="36" height="36" rx="18" fill="#3F7D78"/>
<path d="M23.4975 24.4851L26.6281 15.0937C27.8764 11.3487 28.5006 9.47624 27.5122 8.48782C26.5237 7.49939 24.6511 8.12356 20.906 9.37189L11.5748 12.4822C9.49295 13.1761 8.45203 13.5231 8.13608 14.2864C8.06182 14.4658 8.01692 14.656 8.00311 14.8496C7.94433 15.6737 8.72018 16.4495 10.2719 18.0011L10.5545 18.2837C10.8092 18.5384 10.9365 18.6658 11.0328 18.8075C11.2227 19.0871 11.3305 19.4143 11.3439 19.7519C11.3508 19.9232 11.324 20.1013 11.2706 20.4574C11.0749 21.7612 10.977 22.4131 11.0923 22.9147C11.322 23.9146 12.096 24.6995 13.0926 24.9433C13.5925 25.0656 14.2458 24.977 15.5522 24.7997L15.6236 24.79C15.9919 24.74 16.1761 24.715 16.3529 24.7257C16.6738 24.745 16.9838 24.8496 17.251 25.0285C17.3981 25.1271 17.5295 25.2585 17.7923 25.5213L18.0436 25.7725C19.5539 27.2828 20.309 28.0379 21.1101 27.9985C21.3309 27.9877 21.5479 27.9365 21.7503 27.8474C22.4844 27.5244 22.8221 26.5113 23.4975 24.4851Z" stroke="white" stroke-width="1.5"/>
<path d="M12 24L27 9" stroke="white" stroke-width="1.5" stroke-linecap="round"/>
</svg>
