<svg width="17" height="19" viewBox="0 0 17 19" fill="none" xmlns="http://www.w3.org/2000/svg">
<path d="M16.3889 17.592L10.5201 8.36883L16.311 1.99852C16.442 1.85088 16.5095 1.65757 16.4989 1.46051C16.4883 1.26344 16.4005 1.07849 16.2544 0.945756C16.1084 0.813025 15.9159 0.743211 15.7187 0.751449C15.5215 0.759688 15.3355 0.845314 15.201 0.989766L9.6848 7.05727L5.88886 1.09195C5.82117 0.985411 5.72769 0.897676 5.61707 0.836876C5.50645 0.776077 5.38227 0.74418 5.25605 0.744141H0.756048C0.621574 0.744075 0.489556 0.780166 0.373817 0.848634C0.258079 0.917102 0.162878 1.01543 0.0981828 1.13332C0.0334877 1.25121 0.00167865 1.38432 0.00608614 1.51872C0.0104936 1.65312 0.0509556 1.78387 0.123235 1.89727L5.99199 11.1195L0.201048 17.4945C0.133423 17.5671 0.0808886 17.6524 0.0464895 17.7455C0.0120905 17.8386 -0.00348926 17.9376 0.000653776 18.0368C0.00479681 18.136 0.0285803 18.2333 0.0706251 18.3232C0.11267 18.4131 0.17214 18.4938 0.245589 18.5605C0.319038 18.6273 0.405005 18.6788 0.498507 18.7121C0.592008 18.7453 0.691186 18.7597 0.79029 18.7544C0.889395 18.7491 0.986456 18.7241 1.07585 18.681C1.16524 18.6379 1.24518 18.5774 1.31105 18.5032L6.8273 12.4357L10.6232 18.401C10.6915 18.5067 10.7852 18.5935 10.8958 18.6535C11.0064 18.7134 11.1303 18.7446 11.256 18.7441H15.756C15.8904 18.7441 16.0222 18.708 16.1378 18.6396C16.2534 18.5711 16.3485 18.4729 16.4132 18.3552C16.4779 18.2374 16.5097 18.1045 16.5054 17.9702C16.5012 17.836 16.4609 17.7053 16.3889 17.592ZM11.6676 17.2441L2.12199 2.24414H4.84074L14.3901 17.2441H11.6676Z" fill="#3F7D78"/>
</svg>
