<svg width="25" height="25" viewBox="0 0 25 25" fill="none" xmlns="http://www.w3.org/2000/svg">
<path d="M10.2202 6.87549C10.321 6.87549 10.398 6.9059 10.4761 6.98389L15.4204 11.9282C15.4743 11.9821 15.4995 12.0241 15.5112 12.0522V12.0532C15.526 12.0888 15.5347 12.1285 15.5347 12.1772C15.5347 12.2259 15.526 12.2657 15.5112 12.3013V12.3022C15.4995 12.3304 15.4743 12.3724 15.4204 12.4263L10.4517 17.395C10.3739 17.4728 10.3068 17.4947 10.2261 17.4917C10.132 17.4882 10.0512 17.4563 9.96533 17.3706C9.88721 17.2925 9.85596 17.2156 9.85596 17.1147C9.85596 17.0138 9.88721 16.937 9.96533 16.8589L14.647 12.1772L9.93994 7.47021C9.86228 7.39251 9.84033 7.32621 9.84326 7.24561C9.84671 7.15134 9.87928 7.06994 9.96533 6.98389C10.0433 6.90608 10.1196 6.87556 10.2202 6.87549Z" fill="black" stroke="black"/>
</svg>
