<svg width="20" height="20" viewBox="0 0 20 20" fill="none" xmlns="http://www.w3.org/2000/svg">
<path d="M10.25 0C8.32164 0 6.43657 0.571828 4.83319 1.64317C3.22982 2.71451 1.98013 4.23726 1.24218 6.01884C0.504225 7.80042 0.311142 9.76082 0.687348 11.6521C1.06355 13.5434 1.99215 15.2807 3.35571 16.6443C4.71928 18.0079 6.45656 18.9365 8.34787 19.3127C10.2392 19.6889 12.1996 19.4958 13.9812 18.7578C15.7627 18.0199 17.2855 16.7702 18.3568 15.1668C19.4282 13.5634 20 11.6784 20 9.75C19.9973 7.16498 18.9692 4.68661 17.1413 2.85872C15.3134 1.03084 12.835 0.00272983 10.25 0ZM11 17.9653V12H13.25C13.4489 12 13.6397 11.921 13.7803 11.7803C13.921 11.6397 14 11.4489 14 11.25C14 11.0511 13.921 10.8603 13.7803 10.7197C13.6397 10.579 13.4489 10.5 13.25 10.5H11V8.25C11 7.85218 11.158 7.47064 11.4393 7.18934C11.7206 6.90804 12.1022 6.75 12.5 6.75H14C14.1989 6.75 14.3897 6.67098 14.5303 6.53033C14.671 6.38968 14.75 6.19891 14.75 6C14.75 5.80109 14.671 5.61032 14.5303 5.46967C14.3897 5.32902 14.1989 5.25 14 5.25H12.5C11.7044 5.25 10.9413 5.56607 10.3787 6.12868C9.81608 6.69129 9.5 7.45435 9.5 8.25V10.5H7.25C7.05109 10.5 6.86033 10.579 6.71967 10.7197C6.57902 10.8603 6.5 11.0511 6.5 11.25C6.5 11.4489 6.57902 11.6397 6.71967 11.7803C6.86033 11.921 7.05109 12 7.25 12H9.5V17.9653C7.38575 17.7723 5.42728 16.7717 4.03198 15.1715C2.63667 13.5714 1.91195 11.4949 2.00855 9.37409C2.10515 7.25324 3.01564 5.25127 4.55064 3.7846C6.08563 2.31793 8.12696 1.49947 10.25 1.49947C12.3731 1.49947 14.4144 2.31793 15.9494 3.7846C17.4844 5.25127 18.3949 7.25324 18.4915 9.37409C18.5881 11.4949 17.8633 13.5714 16.468 15.1715C15.0727 16.7717 13.1143 17.7723 11 17.9653Z" fill="#3F7D78"/>
</svg>
