<svg width="48" height="48" viewBox="0 0 48 48" fill="none" xmlns="http://www.w3.org/2000/svg">
<path d="M3.3596 38.4064C2.89226 38.4064 2.5031 38.2487 2.1921 37.9334C1.88076 37.6181 1.7251 37.2279 1.7251 36.7629V10.1784C1.7251 9.71039 1.8836 9.32139 2.2006 9.01139C2.5176 8.70139 2.90976 8.54639 3.3771 8.54639C3.84476 8.54639 4.2321 8.70139 4.5391 9.01139C4.84643 9.32139 5.0001 9.71039 5.0001 10.1784V28.4499H22.7816V16.2034C22.7816 15.2667 23.1143 14.4647 23.7796 13.7974C24.4449 13.1301 25.2518 12.7964 26.2001 12.7964H38.7501C40.8194 12.7964 42.5909 13.5332 44.0646 15.0069C45.5383 16.4806 46.2751 18.2521 46.2751 20.3214V36.7749C46.2751 37.2429 46.1193 37.6317 45.8076 37.9414C45.4959 38.2514 45.1049 38.4064 44.6346 38.4064C44.1673 38.4064 43.7781 38.2487 43.4671 37.9334C43.1558 37.6181 43.0001 37.2279 43.0001 36.7629V31.8564H5.0001V36.7749C5.0001 37.2429 4.84426 37.6317 4.5326 37.9414C4.22093 38.2514 3.82993 38.4064 3.3596 38.4064ZM13.5776 25.6214C12.0376 25.6214 10.7444 25.0992 9.6981 24.0549C8.65176 23.0102 8.1286 21.7181 8.1286 20.1784C8.1286 18.6384 8.65076 17.3481 9.6951 16.3074C10.7398 15.2667 12.0319 14.7464 13.5716 14.7464C15.1116 14.7464 16.4019 15.2659 17.4426 16.3049C18.4833 17.3436 19.0036 18.6327 19.0036 20.1724C19.0036 21.7124 18.4841 23.0056 17.4451 24.0519C16.4064 25.0982 15.1173 25.6214 13.5776 25.6214ZM26.0686 28.4499H43.0001V20.3259C43.0001 19.1542 42.5839 18.1522 41.7516 17.3199C40.9193 16.4876 39.9188 16.0714 38.7501 16.0714H26.0686V28.4499ZM13.5716 22.4784C14.2049 22.4784 14.7466 22.2534 15.1966 21.8034C15.6466 21.3534 15.8716 20.8117 15.8716 20.1784C15.8716 19.5451 15.6466 19.0034 15.1966 18.5534C14.7466 18.1034 14.2049 17.8784 13.5716 17.8784C12.9383 17.8784 12.3966 18.1034 11.9466 18.5534C11.4966 19.0034 11.2716 19.5451 11.2716 20.1784C11.2716 20.8117 11.4966 21.3534 11.9466 21.8034C12.3966 22.2534 12.9383 22.4784 13.5716 22.4784Z" fill="#1E1E1E"/>
</svg>
