<svg width="48" height="49" viewBox="0 0 48 49" fill="none" xmlns="http://www.w3.org/2000/svg">
<rect x="0.5" y="1.16699" width="47" height="47" rx="23.5" fill="white"/>
<rect x="0.5" y="1.16699" width="47" height="47" rx="23.5" stroke="black"/>
<path d="M24.0078 17.3535C24.0934 17.3536 24.1668 17.3798 24.249 17.4619C24.3313 17.5479 24.3574 17.625 24.3574 17.7109C24.3573 17.7978 24.3308 17.8718 24.249 17.9541L17.8877 24.3154H31.2979C31.4194 24.3154 31.4945 24.3508 31.5586 24.4141C31.6207 24.4754 31.6553 24.5471 31.6553 24.667C31.6553 24.7868 31.6207 24.8586 31.5586 24.9199C31.4945 24.9832 31.4194 25.0185 31.2979 25.0186H17.8877L24.2432 31.374V31.373C24.3254 31.4555 24.3537 31.5323 24.3545 31.624V31.625C24.355 31.6915 24.3404 31.7499 24.2988 31.8096L24.2471 31.8711C24.1671 31.952 24.0939 31.9783 24.0049 31.9775C23.9104 31.9766 23.8321 31.9466 23.749 31.8643L16.8008 24.916C16.7476 24.8618 16.7219 24.8197 16.71 24.791V24.79C16.6949 24.7537 16.6865 24.7136 16.6865 24.666C16.6866 24.6184 16.6952 24.5793 16.71 24.5439V24.543C16.7218 24.5145 16.7473 24.4721 16.8008 24.418L23.751 17.4678C23.8414 17.3806 23.9211 17.3535 24.0078 17.3535Z" fill="black" stroke="black"/>
</svg>
