<svg width="32" height="32" viewBox="0 0 32 32" fill="none" xmlns="http://www.w3.org/2000/svg">
<path fill-rule="evenodd" clip-rule="evenodd" d="M21.818 11.6363C21.818 13.1794 21.205 14.6593 20.1139 15.7504C19.0228 16.8415 17.5429 17.4545 15.9998 17.4545C14.4567 17.4545 12.9769 16.8415 11.8857 15.7504C10.7946 14.6593 10.1816 13.1794 10.1816 11.6363C10.1816 10.0932 10.7946 8.61334 11.8857 7.52222C12.9769 6.4311 14.4567 5.81812 15.9998 5.81812C17.5429 5.81812 19.0228 6.4311 20.1139 7.52222C21.205 8.61334 21.818 10.0932 21.818 11.6363ZM18.9089 11.6363C18.9089 12.4078 18.6024 13.1478 18.0569 13.6933C17.5113 14.2389 16.7714 14.5454 15.9998 14.5454C15.2283 14.5454 14.4883 14.2389 13.9428 13.6933C13.3972 13.1478 13.0907 12.4078 13.0907 11.6363C13.0907 10.8648 13.3972 10.1248 13.9428 9.57926C14.4883 9.0337 15.2283 8.72721 15.9998 8.72721C16.7714 8.72721 17.5113 9.0337 18.0569 9.57926C18.6024 10.1248 18.9089 10.8648 18.9089 11.6363Z" fill="black"/>
<path fill-rule="evenodd" clip-rule="evenodd" d="M16 0C7.16364 0 0 7.16364 0 16C0 24.8364 7.16364 32 16 32C24.8364 32 32 24.8364 32 16C32 7.16364 24.8364 0 16 0ZM2.90909 16C2.90909 19.04 3.94618 21.8385 5.68436 24.0611C6.90537 22.4584 8.48022 21.1595 10.286 20.2658C12.0918 19.3721 14.0797 18.9078 16.0945 18.9091C18.0835 18.9068 20.0466 19.3587 21.8344 20.2304C23.6221 21.102 25.1872 22.3705 26.4102 23.9389C27.6705 22.286 28.519 20.3567 28.8857 18.3107C29.2523 16.2647 29.1264 14.1608 28.5185 12.1731C27.9106 10.1854 26.8381 8.37098 25.3898 6.88005C23.9415 5.38913 22.1589 4.26452 20.1896 3.59929C18.2204 2.93405 16.121 2.7473 14.0653 3.05451C12.0095 3.36171 10.0564 4.15402 8.36766 5.3659C6.67891 6.57777 5.303 8.17436 4.35379 10.0236C3.40458 11.8728 2.90935 13.9214 2.90909 16ZM16 29.0909C12.9948 29.0958 10.0802 28.0619 7.74982 26.1644C8.68772 24.8213 9.93628 23.7247 11.3892 22.9679C12.8421 22.2112 14.4564 21.8168 16.0945 21.8182C17.7123 21.8168 19.307 22.2014 20.7462 22.9401C22.1854 23.6788 23.4275 24.7503 24.3695 26.0655C22.021 28.0247 19.0584 29.0957 16 29.0909Z" fill="black"/>
</svg>
