<svg width="108" height="24" viewBox="0 0 108 24" fill="none" xmlns="http://www.w3.org/2000/svg">
<path d="M2 12C2 8.22876 2 6.34315 3.17157 5.17157C4.34315 4 6.22876 4 10 4H14C17.7712 4 19.6569 4 20.8284 5.17157C22 6.34315 22 8.22876 22 12C22 15.7712 22 17.6569 20.8284 18.8284C19.6569 20 17.7712 20 14 20H10C6.22876 20 4.34315 20 3.17157 18.8284C2 17.6569 2 15.7712 2 12Z" stroke="#5D5D5D" stroke-width="1.5"/>
<path d="M6 8L8.1589 9.79908C9.99553 11.3296 10.9139 12.0949 12 12.0949C13.0861 12.0949 14.0045 11.3296 15.8411 9.79908L18 8" stroke="#5D5D5D" stroke-width="1.5" stroke-linecap="round"/>
<path d="M35.352 21V15.464L31.176 9.08H32.6L36.248 14.632H35.736L39.368 9.08H40.792L36.632 15.464V21H35.352ZM44.623 21.192C43.8123 21.192 43.0763 21 42.415 20.616C41.7537 20.2213 41.2257 19.688 40.831 19.016C40.447 18.3333 40.255 17.56 40.255 16.696C40.255 15.8427 40.447 15.08 40.831 14.408C41.215 13.736 41.7323 13.208 42.383 12.824C43.0443 12.4293 43.791 12.232 44.623 12.232C45.455 12.232 46.1963 12.424 46.847 12.808C47.5083 13.192 48.0257 13.72 48.399 14.392C48.783 15.064 48.975 15.832 48.975 16.696C48.975 17.5707 48.7777 18.3493 48.383 19.032C47.9883 19.704 47.4603 20.232 46.799 20.616C46.1483 21 45.423 21.192 44.623 21.192ZM44.623 19.992C45.199 19.992 45.7163 19.848 46.175 19.56C46.6443 19.272 47.0123 18.8773 47.279 18.376C47.5563 17.8747 47.695 17.3147 47.695 16.696C47.695 16.0773 47.5563 15.5227 47.279 15.032C47.0123 14.5413 46.6443 14.152 46.175 13.864C45.7163 13.576 45.199 13.432 44.623 13.432C44.047 13.432 43.5243 13.576 43.055 13.864C42.5963 14.152 42.2283 14.5413 41.951 15.032C41.6737 15.5227 41.535 16.0773 41.535 16.696C41.535 17.3147 41.6737 17.8747 41.951 18.376C42.2283 18.8773 42.5963 19.272 43.055 19.56C43.5243 19.848 44.047 19.992 44.623 19.992ZM54.1314 21.192C53.534 21.192 52.99 21.0533 52.4994 20.776C52.0087 20.488 51.6194 20.0933 51.3314 19.592C51.054 19.08 50.9154 18.4933 50.9154 17.832V12.424H52.1154V17.688C52.1154 18.1467 52.206 18.552 52.3874 18.904C52.5794 19.2453 52.8407 19.512 53.1714 19.704C53.5127 19.896 53.902 19.992 54.3394 19.992C54.7767 19.992 55.166 19.896 55.5074 19.704C55.8487 19.5013 56.1154 19.2187 56.3074 18.856C56.4994 18.4827 56.5954 18.04 56.5954 17.528V12.424H57.7954V21H56.5954V19.336L56.8674 19.4C56.6647 19.9547 56.318 20.392 55.8274 20.712C55.3367 21.032 54.7714 21.192 54.1314 21.192ZM60.2633 21V12.424H61.4633V13.832L61.3033 13.624C61.5059 13.2187 61.8099 12.8987 62.2153 12.664C62.6313 12.4293 63.1326 12.312 63.7193 12.312H64.2633V13.512H63.5113C62.8926 13.512 62.3966 13.704 62.0233 14.088C61.6499 14.472 61.4633 15.016 61.4633 15.72V21H60.2633ZM72.2923 21.192C71.4923 21.192 70.7669 21 70.1163 20.616C69.4763 20.2213 68.9696 19.6827 68.5963 19C68.2229 18.3173 68.0363 17.544 68.0363 16.68C68.0363 15.816 68.2176 15.0533 68.5803 14.392C68.9429 13.72 69.4336 13.192 70.0523 12.808C70.6816 12.424 71.3856 12.232 72.1643 12.232C72.7829 12.232 73.3323 12.3493 73.8123 12.584C74.3029 12.808 74.7189 13.1173 75.0603 13.512C75.4016 13.896 75.6629 14.3333 75.8443 14.824C76.0256 15.304 76.1163 15.8 76.1163 16.312C76.1163 16.4187 76.1109 16.5413 76.1003 16.68C76.0896 16.808 76.0736 16.9413 76.0523 17.08H68.8043V15.96H75.3643L74.7883 16.44C74.8843 15.8533 74.8149 15.3307 74.5803 14.872C74.3563 14.4027 74.0309 14.0347 73.6043 13.768C73.1776 13.4907 72.6976 13.352 72.1643 13.352C71.6309 13.352 71.1349 13.4907 70.6763 13.768C70.2283 14.0453 69.8763 14.4347 69.6203 14.936C69.3643 15.4267 69.2629 16.0133 69.3163 16.696C69.2629 17.3787 69.3696 17.976 69.6363 18.488C69.9136 18.9893 70.2869 19.3787 70.7563 19.656C71.2363 19.9333 71.7483 20.072 72.2923 20.072C72.9216 20.072 73.4496 19.9227 73.8763 19.624C74.3029 19.3253 74.6496 18.952 74.9163 18.504L75.9403 19.048C75.7696 19.432 75.5083 19.7893 75.1562 20.12C74.8043 20.44 74.3829 20.7013 73.8923 20.904C73.4123 21.096 72.8789 21.192 72.2923 21.192ZM78.232 21V12.424H79.432V14.056L79.24 13.816C79.4747 13.3147 79.8213 12.9253 80.28 12.648C80.7493 12.3707 81.2613 12.232 81.816 12.232C82.4773 12.232 83.0747 12.4187 83.608 12.792C84.1413 13.1653 84.52 13.6507 84.744 14.248L84.408 14.264C84.6213 13.6027 84.9893 13.1013 85.512 12.76C86.0453 12.408 86.632 12.232 87.272 12.232C87.848 12.232 88.376 12.3707 88.856 12.648C89.3467 12.9253 89.736 13.3093 90.024 13.8C90.3227 14.28 90.472 14.824 90.472 15.432V21H89.272V15.896C89.272 15.3733 89.176 14.9307 88.984 14.568C88.8027 14.2053 88.552 13.928 88.232 13.736C87.912 13.5333 87.544 13.432 87.128 13.432C86.7227 13.432 86.3547 13.5333 86.024 13.736C85.6933 13.928 85.432 14.2107 85.24 14.584C85.048 14.9467 84.952 15.384 84.952 15.896V21H83.752V15.896C83.752 15.3733 83.656 14.9307 83.464 14.568C83.2827 14.2053 83.032 13.928 82.712 13.736C82.392 13.5333 82.024 13.432 81.608 13.432C81.192 13.432 80.8187 13.5333 80.488 13.736C80.168 13.928 79.912 14.2107 79.72 14.584C79.528 14.9467 79.432 15.384 79.432 15.896V21H78.232ZM95.2433 21.192C94.6993 21.192 94.2139 21.0907 93.7873 20.888C93.3606 20.6747 93.0246 20.3867 92.7793 20.024C92.5339 19.6613 92.4113 19.2453 92.4113 18.776C92.4113 18.328 92.5073 17.9227 92.6993 17.56C92.8913 17.1867 93.1899 16.872 93.5953 16.616C94.0006 16.36 94.5179 16.1787 95.1473 16.072L98.5073 15.512V16.6L95.4353 17.112C94.8166 17.2187 94.3686 17.416 94.0913 17.704C93.8246 17.992 93.6913 18.3333 93.6913 18.728C93.6913 19.112 93.8406 19.4373 94.1393 19.704C94.4486 19.9707 94.8433 20.104 95.3233 20.104C95.9099 20.104 96.4219 19.9813 96.8593 19.736C97.2966 19.48 97.6379 19.1387 97.8833 18.712C98.1286 18.2853 98.2513 17.8107 98.2513 17.288V15.112C98.2513 14.6 98.0646 14.184 97.6913 13.864C97.3179 13.544 96.8326 13.384 96.2352 13.384C95.7126 13.384 95.2539 13.5173 94.8593 13.784C94.4646 14.04 94.1713 14.376 93.9793 14.792L92.8913 14.2C93.0513 13.8373 93.3019 13.5067 93.6432 13.208C93.9953 12.9093 94.3953 12.6747 94.8433 12.504C95.2913 12.3227 95.7553 12.232 96.2352 12.232C96.8646 12.232 97.4193 12.3547 97.8993 12.6C98.3899 12.8453 98.7686 13.1867 99.0353 13.624C99.3126 14.0507 99.4513 14.5467 99.4513 15.112V21H98.2513V19.288L98.4273 19.464C98.2779 19.784 98.0433 20.0773 97.7233 20.344C97.4139 20.6 97.0459 20.808 96.6193 20.968C96.2033 21.1173 95.7446 21.192 95.2433 21.192ZM101.92 21V12.424H103.12V21H101.92ZM101.92 10.84V9.08H103.12V10.84H101.92ZM105.576 21V8.888H106.776V21H105.576Z" fill="#888888"/>
</svg>
