<svg width="48" height="49" viewBox="0 0 48 49" fill="none" xmlns="http://www.w3.org/2000/svg">
<rect x="0.5" y="1.16699" width="47" height="47" rx="23.5" fill="white"/>
<rect x="0.5" y="1.16699" width="47" height="47" rx="23.5" stroke="black"/>
<path d="M23.9951 17.3564C24.0661 17.3571 24.1279 17.3738 24.1895 17.417L24.251 17.4697L31.1992 24.418C31.2524 24.4721 31.2781 24.5143 31.29 24.543V24.5439C31.3052 24.5803 31.3135 24.6203 31.3135 24.668C31.3134 24.7156 31.3048 24.7547 31.29 24.79V24.791C31.2782 24.8195 31.2527 24.8618 31.1992 24.916L24.2451 31.8643C24.1538 31.9545 24.0752 31.9805 23.9922 31.9805C23.9115 31.9804 23.8393 31.9559 23.7559 31.8701L23.751 31.8652L23.6992 31.8047C23.6571 31.7451 23.6426 31.687 23.6426 31.6221C23.6426 31.5574 23.6573 31.4998 23.6992 31.4404L23.751 31.3799L30.1123 25.0186H16.7021C16.5801 25.0185 16.5078 24.9834 16.4473 24.9229H16.4463C16.3854 24.8619 16.3506 24.789 16.3506 24.667C16.3506 24.545 16.3854 24.472 16.4463 24.4111H16.4473C16.5078 24.3506 16.58 24.3155 16.7021 24.3154H30.1123L23.7568 17.96C23.6955 17.8986 23.6637 17.8402 23.6514 17.7754L23.6455 17.708C23.6446 17.6181 23.6708 17.5445 23.751 17.4639L23.752 17.4629C23.8321 17.3823 23.9055 17.3557 23.9951 17.3564Z" fill="black" stroke="black"/>
</svg>
