<svg width="73" height="48" viewBox="0 0 73 48" fill="none" xmlns="http://www.w3.org/2000/svg">
<path d="M22.5239 38.0991V40.1436C22.5239 40.7423 22.3133 41.2513 21.8919 41.6706C21.4703 42.0896 20.9584 42.2991 20.3564 42.2991C19.7498 42.2991 19.2389 42.0888 18.8239 41.6681C18.4086 41.2471 18.2009 40.7349 18.2009 40.1316V24.8121C18.2009 24.6301 18.2113 24.4519 18.2319 24.2776C18.2526 24.1036 18.3003 23.9213 18.3749 23.7306L22.2509 12.0141C22.4749 11.3011 22.8833 10.7354 23.4759 10.3171C24.0686 9.89845 24.7338 9.68912 25.4714 9.68912H31.1784V7.51111C31.1784 7.03011 31.3421 6.62595 31.6694 6.29861C31.9968 5.97128 32.4008 5.80762 32.8814 5.80762H40.2184C40.6991 5.80762 41.1031 5.97128 41.4304 6.29861C41.7578 6.62595 41.9214 7.03011 41.9214 7.51111V9.68912H47.5284C48.2661 9.68912 48.9313 9.89845 49.5239 10.3171C50.1166 10.7354 50.5289 11.3011 50.7609 12.0141L54.6249 23.7306C54.6996 23.9213 54.7493 24.1036 54.7739 24.2776C54.7986 24.4519 54.8109 24.6301 54.8109 24.8121V40.1436C54.8109 40.7423 54.5993 41.2513 54.1759 41.6706C53.7529 42.0896 53.2391 42.2991 52.6344 42.2991C52.0338 42.2991 51.5156 42.0838 51.0799 41.6531C50.6439 41.2228 50.4259 40.6989 50.4259 40.0816V38.0991H22.5239ZM22.7814 21.3001H50.2304L47.5164 13.1076H25.4834L22.7814 21.3001ZM26.8479 32.2401C27.6146 32.2401 28.2583 31.9776 28.7789 31.4526C29.2996 30.9276 29.5599 30.2901 29.5599 29.5401C29.5599 28.7624 29.2954 28.1014 28.7664 27.5571C28.2374 27.0124 27.6019 26.7401 26.8599 26.7401C26.0739 26.7401 25.4108 27.0113 24.8704 27.5536C24.3301 28.0956 24.0599 28.7539 24.0599 29.5286C24.0599 30.3029 24.3289 30.9484 24.8669 31.4651C25.4053 31.9818 26.0656 32.2401 26.8479 32.2401ZM46.2019 32.2401C46.9799 32.2401 47.6411 31.9776 48.1854 31.4526C48.7298 30.9276 49.0019 30.2901 49.0019 29.5401C49.0019 28.7624 48.7309 28.1014 48.1889 27.5571C47.6466 27.0124 46.9883 26.7401 46.2139 26.7401C45.4393 26.7401 44.7936 27.0113 44.2769 27.5536C43.7603 28.0956 43.5019 28.7539 43.5019 29.5286C43.5019 30.3029 43.7644 30.9484 44.2894 31.4651C44.8144 31.9818 45.4519 32.2401 46.2019 32.2401ZM21.6074 34.6926H51.3924V24.3001H21.6074V34.6926Z" fill="#1E1E1E"/>
</svg>
