<svg width="20" height="18" viewBox="0 0 20 18" fill="none" xmlns="http://www.w3.org/2000/svg">
<path d="M17.9993 10.9998C18.3845 11 18.7549 11.1484 19.0336 11.4142C19.3124 11.6801 19.4783 12.043 19.4968 12.4277C19.5153 12.8125 19.3851 13.1896 19.1331 13.481C18.8811 13.7724 18.5267 13.9556 18.1433 13.9928L17.9993 13.9998H5.62026L7.06026 15.4398C7.33303 15.7116 7.49083 16.0779 7.50099 16.4628C7.51116 16.8477 7.3729 17.2218 7.11486 17.5076C6.85682 17.7934 6.49875 17.969 6.11479 17.9981C5.73084 18.0272 5.3504 17.9075 5.05226 17.6638L4.93826 17.5608L1.10926 13.7308C0.135259 12.7568 0.769259 11.1138 2.10026 11.0058L2.24026 10.9998H17.9993ZM12.9393 0.439813C13.2016 0.17721 13.5521 0.0212212 13.9228 0.00201127C14.2935 -0.0171987 14.6582 0.101735 14.9463 0.335813L15.0603 0.438813L18.8893 4.26881C19.8633 5.24281 19.2293 6.88581 17.8983 6.99381L17.7583 6.99981H1.99926C1.61404 6.99962 1.24366 6.85124 0.964872 6.5854C0.68608 6.31957 0.520247 5.95667 0.501735 5.5719C0.483222 5.18713 0.613451 4.80998 0.865434 4.51861C1.11742 4.22724 1.47184 4.04398 1.85526 4.00681L1.99926 3.99981H14.3783L12.9383 2.55981C12.6574 2.27856 12.4996 1.89731 12.4996 1.49981C12.4996 1.10231 12.6584 0.721064 12.9393 0.439813Z" fill="#1A1A1A"/>
</svg>
