<svg width="27" height="23" viewBox="0 0 27 23" fill="none" xmlns="http://www.w3.org/2000/svg">
<rect width="27" height="23" rx="11.5" fill="#3498DB"/>
<path d="M21.8007 6.2335L10.9212 17.7882C10.8581 17.8553 10.7831 17.9086 10.7005 17.945C10.618 17.9813 10.5295 18 10.4401 18C10.3508 18 10.2623 17.9813 10.1797 17.945C10.0972 17.9086 10.0222 17.8553 9.95906 17.7882L5.19927 12.733C5.07168 12.5975 5 12.4137 5 12.2221C5 12.0304 5.07168 11.8467 5.19927 11.7112C5.32686 11.5756 5.49991 11.4995 5.68035 11.4995C5.86079 11.4995 6.03384 11.5756 6.16143 11.7112L10.4401 16.2563L20.8386 5.21164C20.9662 5.07613 21.1392 5 21.3197 5C21.5001 5 21.6731 5.07613 21.8007 5.21164C21.9283 5.34714 22 5.53093 22 5.72257C22 5.91421 21.9283 6.098 21.8007 6.2335Z" fill="white"/>
</svg>
