<svg width="25" height="24" viewBox="0 0 25 24" fill="none" xmlns="http://www.w3.org/2000/svg">
<path d="M19 3.76514H16.967C16.6555 3.76535 16.3537 3.87398 16.1134 4.07237C15.8732 4.27076 15.7095 4.54657 15.6504 4.85248C15.5912 5.15838 15.6404 5.47533 15.7894 5.74896C15.9384 6.02258 16.178 6.23584 16.467 6.35214L18.531 7.17814C18.8201 7.29444 19.0597 7.50769 19.2087 7.78132C19.3577 8.05494 19.4068 8.37189 19.3477 8.6778C19.2886 8.98371 19.1249 9.25951 18.8846 9.4579C18.6444 9.6563 18.3426 9.76492 18.031 9.76514H17.5M17.5 3.76514V3.01514" stroke="#1A1A1A" stroke-width="1.5" stroke-linecap="round" stroke-linejoin="round"/>
<path d="M18.2799 12.7151C19.3901 12.5692 20.4374 12.1157 21.3033 11.4057C22.1692 10.6957 22.8192 9.75762 23.1797 8.6975C23.5403 7.63738 23.5971 6.49752 23.3436 5.40682C23.0901 4.31612 22.5366 3.31809 21.7455 2.52559C20.9544 1.7331 19.9573 1.17775 18.8671 0.922343C17.7769 0.666939 16.6369 0.721671 15.5761 1.08035C14.5154 1.43903 13.5761 2.08734 12.8646 2.95198C12.1531 3.81662 11.6977 4.86309 11.5499 5.97306M15.9999 15.7651C15.9999 13.7759 15.2097 11.8683 13.8032 10.4618C12.3966 9.05523 10.489 8.26506 8.49985 8.26506M2.49985 11.2651C1.8919 12.0839 1.45732 13.018 1.22268 14.0105C0.98805 15.003 0.958287 16.0329 1.13522 17.0372C1.31215 18.0416 1.69205 18.9993 2.25171 19.8519C2.81136 20.7044 3.53901 21.4339 4.39017 21.9956C5.24133 22.5574 6.19811 22.9397 7.20203 23.1191C8.20595 23.2985 9.23592 23.2713 10.229 23.0391C11.222 22.8069 12.1573 22.3747 12.9776 21.7687C13.7979 21.1628 14.486 20.396 14.9999 19.5151" stroke="#1A1A1A" stroke-width="1.5" stroke-linecap="round" stroke-linejoin="round"/>
<path d="M9.25 15.7651C9.64782 15.7651 10.0294 15.6071 10.3107 15.3258C10.592 15.0445 10.75 14.663 10.75 14.2651C10.75 13.8673 10.592 13.4858 10.3107 13.2045C10.0294 12.9232 9.64782 12.7651 9.25 12.7651H7V18.7651H9.25C9.64782 18.7651 10.0294 18.6071 10.3107 18.3258C10.592 18.0445 10.75 17.663 10.75 17.2651C10.75 16.8673 10.592 16.4858 10.3107 16.2045C10.0294 15.9232 9.64782 15.7651 9.25 15.7651ZM9.25 15.7651H7M8.5 12.7651V11.2651M8.5 18.7651V20.2651M1 4.51514L3.25 8.26514L7 6.01514" stroke="#1A1A1A" stroke-width="1.5" stroke-linecap="round" stroke-linejoin="round"/>
<path d="M8.43896 0.915039C7.05043 1.42102 5.86632 2.36871 5.06841 3.61265C4.27049 4.85658 3.90287 6.328 4.02196 7.80104M23.5 19.515L21.25 15.765L17.5 18.015" stroke="#1A1A1A" stroke-width="1.5" stroke-linecap="round" stroke-linejoin="round"/>
<path d="M16.0605 23.115C17.4487 22.6091 18.6326 21.6617 19.4305 20.4182C20.2283 19.1746 20.5962 17.7037 20.4775 16.231" stroke="#1A1A1A" stroke-width="1.5" stroke-linecap="round" stroke-linejoin="round"/>
</svg>
