<svg width="21" height="16" viewBox="0 0 21 16" fill="none" xmlns="http://www.w3.org/2000/svg">
<path d="M13.5 3.5C13.5 3.30109 13.579 3.11032 13.7197 2.96967C13.8603 2.82902 14.0511 2.75 14.25 2.75H17.25C17.4489 2.75 17.6397 2.82902 17.7803 2.96967C17.921 3.11032 18 3.30109 18 3.5C18 3.69891 17.921 3.88968 17.7803 4.03033C17.6397 4.17098 17.4489 4.25 17.25 4.25H14.25C14.0511 4.25 13.8603 4.17098 13.7197 4.03033C13.579 3.88968 13.5 3.69891 13.5 3.5ZM0.75 4.25H10.5V5.75C10.5 5.94891 10.579 6.13968 10.7197 6.28033C10.8603 6.42098 11.0511 6.5 11.25 6.5C11.4489 6.5 11.6397 6.42098 11.7803 6.28033C11.921 6.13968 12 5.94891 12 5.75V1.25C12 1.05109 11.921 0.860322 11.7803 0.71967C11.6397 0.579018 11.4489 0.5 11.25 0.5C11.0511 0.5 10.8603 0.579018 10.7197 0.71967C10.579 0.860322 10.5 1.05109 10.5 1.25V2.75H0.75C0.551088 2.75 0.360322 2.82902 0.21967 2.96967C0.0790178 3.11032 0 3.30109 0 3.5C0 3.69891 0.0790178 3.88968 0.21967 4.03033C0.360322 4.17098 0.551088 4.25 0.75 4.25ZM17.25 11.75H8.25C8.05109 11.75 7.86032 11.829 7.71967 11.9697C7.57902 12.1103 7.5 12.3011 7.5 12.5C7.5 12.6989 7.57902 12.8897 7.71967 13.0303C7.86032 13.171 8.05109 13.25 8.25 13.25H17.25C17.4489 13.25 17.6397 13.171 17.7803 13.0303C17.921 12.8897 18 12.6989 18 12.5C18 12.3011 17.921 12.1103 17.7803 11.9697C17.6397 11.829 17.4489 11.75 17.25 11.75ZM5.25 9.5C5.05109 9.5 4.86032 9.57902 4.71967 9.71967C4.57902 9.86032 4.5 10.0511 4.5 10.25V11.75H0.75C0.551088 11.75 0.360322 11.829 0.21967 11.9697C0.0790178 12.1103 0 12.3011 0 12.5C0 12.6989 0.0790178 12.8897 0.21967 13.0303C0.360322 13.171 0.551088 13.25 0.75 13.25H4.5V14.75C4.5 14.9489 4.57902 15.1397 4.71967 15.2803C4.86032 15.421 5.05109 15.5 5.25 15.5C5.44891 15.5 5.63968 15.421 5.78033 15.2803C5.92098 15.1397 6 14.9489 6 14.75V10.25C6 10.0511 5.92098 9.86032 5.78033 9.71967C5.63968 9.57902 5.44891 9.5 5.25 9.5Z" fill="#3498DB"/>
</svg>
