<svg width="62" height="26" viewBox="0 0 62 26" fill="none" xmlns="http://www.w3.org/2000/svg">
<path d="M7.14 15V8H7.75L12.58 14.08H12.26V8H12.99V15H12.38L7.56 8.92H7.88V15H7.14ZM17.3548 15.05C16.8081 15.05 16.3281 14.9367 15.9148 14.71C15.5014 14.4767 15.1781 14.16 14.9448 13.76C14.7114 13.3533 14.5948 12.89 14.5948 12.37C14.5948 11.85 14.7048 11.39 14.9248 10.99C15.1514 10.59 15.4581 10.2767 15.8448 10.05C16.2381 9.81667 16.6781 9.7 17.1648 9.7C17.6581 9.7 18.0948 9.81333 18.4748 10.04C18.8614 10.26 19.1648 10.5733 19.3848 10.98C19.6048 11.38 19.7148 11.8433 19.7148 12.37C19.7148 12.4033 19.7114 12.44 19.7048 12.48C19.7048 12.5133 19.7048 12.55 19.7048 12.59H15.1348V12.06H19.3248L19.0448 12.27C19.0448 11.89 18.9614 11.5533 18.7948 11.26C18.6348 10.96 18.4148 10.7267 18.1348 10.56C17.8548 10.3933 17.5314 10.31 17.1648 10.31C16.8048 10.31 16.4814 10.3933 16.1948 10.56C15.9081 10.7267 15.6848 10.96 15.5248 11.26C15.3648 11.56 15.2848 11.9033 15.2848 12.29V12.4C15.2848 12.8 15.3714 13.1533 15.5448 13.46C15.7248 13.76 15.9714 13.9967 16.2848 14.17C16.6048 14.3367 16.9681 14.42 17.3748 14.42C17.6948 14.42 17.9914 14.3633 18.2648 14.25C18.5448 14.1367 18.7848 13.9633 18.9848 13.73L19.3848 14.19C19.1514 14.47 18.8581 14.6833 18.5048 14.83C18.1581 14.9767 17.7748 15.05 17.3548 15.05ZM22.1323 15L20.1523 9.75H20.8323L22.6323 14.62H22.3223L24.1723 9.75H24.7823L26.6123 14.62H26.3023L28.1323 9.75H28.7823L26.7923 15H26.1223L24.3623 10.42H24.5723L22.8023 15H22.1323Z" fill="#FF0000"/>
<path d="M50.875 5H36.625C35.1753 5 34 6.17525 34 7.625V17.375C34 18.8247 35.1753 20 36.625 20H50.875C52.3247 20 53.5 18.8247 53.5 17.375V7.625C53.5 6.17525 52.3247 5 50.875 5Z" stroke="#1A1A1A" stroke-linecap="round" stroke-linejoin="round"/>
<path d="M34 9.375H54.5M37.3125 14.6484H44.5H38.6875H37.3125Z" stroke="#1A1A1A" stroke-width="1.875" stroke-linejoin="round"/>
</svg>
