<svg width="75" height="37" viewBox="0 0 75 37" fill="none" xmlns="http://www.w3.org/2000/svg">
<path d="M51.8718 18.7559C52.9118 18.7559 53.8478 18.9159 54.6798 19.2359C55.5278 19.5559 56.2558 20.0199 56.8638 20.6279C57.4718 21.2199 57.9358 21.9239 58.2558 22.7399C58.5918 23.5559 58.7598 24.4599 58.7598 25.4519C58.7598 26.7159 58.4958 27.8279 57.9678 28.7879C57.4558 29.7319 56.7518 30.4679 55.8558 30.9959C54.9598 31.5239 53.9598 31.7879 52.8558 31.7879C52.4238 31.7879 52.0158 31.7399 51.6318 31.6439C51.2478 31.5479 50.8958 31.4119 50.5758 31.2359C50.2558 31.0439 49.9758 30.8039 49.7358 30.5159H49.5918V36.5879H44.9838V25.4999C44.9838 24.1399 45.2718 22.9559 45.8478 21.9479C46.4238 20.9399 47.2318 20.1559 48.2718 19.5959C49.3118 19.0359 50.5118 18.7559 51.8718 18.7559ZM51.8718 22.7879C51.4558 22.7879 51.0798 22.8919 50.7438 23.0999C50.4078 23.3079 50.1438 23.5959 49.9518 23.9639C49.7758 24.3319 49.6878 24.7639 49.6878 25.2599C49.6878 25.7079 49.7758 26.1159 49.9518 26.4839C50.1438 26.8359 50.4078 27.1159 50.7438 27.3239C51.0798 27.5319 51.4558 27.6359 51.8718 27.6359C52.3038 27.6359 52.6798 27.5319 52.9998 27.3239C53.3358 27.1159 53.5918 26.8359 53.7678 26.4839C53.9598 26.1159 54.0558 25.7079 54.0558 25.2599C54.0558 24.7639 53.9598 24.3319 53.7678 23.9639C53.5918 23.5959 53.3358 23.3079 52.9998 23.0999C52.6798 22.8919 52.3038 22.7879 51.8718 22.7879Z" fill="#3498DB"/>
<path fill-rule="evenodd" clip-rule="evenodd" d="M34.2398 31.8119C33.1998 31.8119 32.2638 31.5479 31.4318 31.0199C30.5998 30.4919 29.9438 29.7639 29.4638 28.8359C28.9838 27.8919 28.7438 26.7959 28.7438 25.5479C28.7438 24.2199 29.0398 23.0519 29.6318 22.0439C30.2238 21.0199 31.0398 20.2199 32.0798 19.6439C33.1358 19.0679 34.3598 18.7799 35.7518 18.7799C37.1118 18.7799 38.2958 19.0599 39.3038 19.6199C40.3118 20.1639 41.0958 20.9319 41.6558 21.9239C42.2318 22.8999 42.5198 24.0359 42.5198 25.3319V31.4999H38.1518V29.6519H38.0078C37.7998 30.0839 37.5198 30.4679 37.1678 30.8039C36.8318 31.1239 36.4238 31.3719 35.9438 31.5479C35.4638 31.7239 34.8958 31.8119 34.2398 31.8119ZM36.7838 27.4679C36.4638 27.6759 36.0878 27.7799 35.6558 27.7799C35.2398 27.7799 34.8638 27.6759 34.5278 27.4679C34.1918 27.2599 33.9278 26.9719 33.7358 26.6039C33.5598 26.2199 33.4718 25.7879 33.4718 25.3079C33.4718 24.8439 33.5598 24.4359 33.7358 24.0839C33.9278 23.7319 34.1918 23.4519 34.5278 23.2439C34.8638 23.0359 35.2398 22.9319 35.6558 22.9319C36.0878 22.9319 36.4638 23.0359 36.7838 23.2439C37.1198 23.4519 37.3758 23.7319 37.5518 24.0839C37.7438 24.4359 37.8398 24.8439 37.8398 25.3079C37.8398 25.7879 37.7438 26.2199 37.5518 26.6039C37.3758 26.9719 37.1198 27.2599 36.7838 27.4679Z" fill="#3498DB"/>
<path fill-rule="evenodd" clip-rule="evenodd" d="M66.2398 31.8119C65.1998 31.8119 64.2638 31.5479 63.4318 31.0199C62.5998 30.4919 61.9438 29.7639 61.4638 28.8359C60.9838 27.8919 60.7438 26.7959 60.7438 25.5479C60.7438 24.2199 61.0398 23.0519 61.6318 22.0439C62.2238 21.0199 63.0398 20.2199 64.0798 19.6439C65.1358 19.0679 66.3598 18.7799 67.7518 18.7799C69.1118 18.7799 70.2958 19.0599 71.3038 19.6199C72.3118 20.1639 73.0958 20.9319 73.6558 21.9239C74.2318 22.8999 74.5198 24.0359 74.5198 25.3319V31.4999H70.1518V29.6519H70.0078C69.7998 30.0839 69.5198 30.4679 69.1678 30.8039C68.8318 31.1239 68.4238 31.3719 67.9438 31.5479C67.4638 31.7239 66.8958 31.8119 66.2398 31.8119ZM68.7838 27.4679C68.4638 27.6759 68.0878 27.7799 67.6558 27.7799C67.2398 27.7799 66.8638 27.6759 66.5278 27.4679C66.1918 27.2599 65.9278 26.9719 65.7358 26.6039C65.5598 26.2199 65.4718 25.7879 65.4718 25.3079C65.4718 24.8439 65.5598 24.4359 65.7358 24.0839C65.9278 23.7319 66.1918 23.4519 66.5278 23.2439C66.8638 23.0359 67.2398 22.9319 67.6558 22.9319C68.0878 22.9319 68.4638 23.0359 68.7838 23.2439C69.1198 23.4519 69.3758 23.7319 69.5518 24.0839C69.7438 24.4359 69.8398 24.8439 69.8398 25.3079C69.8398 25.7879 69.7438 26.2199 69.5518 26.6039C69.3758 26.9719 69.1198 27.2599 68.7838 27.4679Z" fill="#3498DB"/>
<path d="M5.25166 17.7073L19.1164 17.7075C18.8094 36.6582 15.4097 35.2929 0.5 31.2076C16.1349 38.9938 26.3666 39.0067 27.1164 18.1055L40.2521 17.7071C40.2521 17.7071 42.7537 18.2108 40.2528 15.7075C37.7518 13.2043 27.4998 10.9998 27.4998 10.9998C29.5518 -2.81466 20.0351 -2.07352 19.9998 11.4998C19.9998 11.4998 5.25175 14.7056 3.2509 16.2065C1.25004 17.7074 5.25166 17.7073 5.25166 17.7073Z" fill="url(#paint0_linear_521_329)"/>
<defs>
<linearGradient id="paint0_linear_521_329" x1="-101.821" y1="36.5879" x2="37.5099" y2="36.5879" gradientUnits="userSpaceOnUse">
<stop offset="0.845271" stop-color="#3498DB"/>
<stop offset="1" stop-color="#2ECC71"/>
</linearGradient>
</defs>
</svg>
