<svg width="29" height="17" viewBox="0 0 29 17" fill="none" xmlns="http://www.w3.org/2000/svg">
<path d="M20.2486 16.25C20.2486 16.4489 20.1696 16.6397 20.029 16.7803C19.8883 16.921 19.6976 17 19.4986 17H5.99864C5.79973 17 5.60896 16.921 5.46831 16.7803C5.32766 16.6397 5.24864 16.4489 5.24864 16.25C5.24864 16.0511 5.32766 15.8603 5.46831 15.7197C5.60896 15.579 5.79973 15.5 5.99864 15.5H19.4986C19.6976 15.5 19.8883 15.579 20.029 15.7197C20.1696 15.8603 20.2486 16.0511 20.2486 16.25ZM22.4986 8.75V11C22.4986 11.1989 22.4196 11.3897 22.279 11.5303C22.1383 11.671 21.9476 11.75 21.7486 11.75H4.97395C4.16656 11.7537 3.3798 11.4951 2.73207 11.013C2.08434 10.531 1.61069 9.85165 1.38239 9.07719L0.0633293 4.68125C-0.00387219 4.45737 -0.0178236 4.22089 0.0225878 3.99067C0.0629992 3.76044 0.156655 3.54285 0.296084 3.35524C0.435513 3.16764 0.616857 3.01521 0.825647 2.91013C1.03444 2.80505 1.2649 2.75021 1.49864 2.75H2.24864C2.44729 2.75009 2.63779 2.82899 2.77833 2.96938L4.80989 5H6.91833L6.07458 2.47438C5.99938 2.24881 5.97889 2.0086 6.01478 1.77355C6.05068 1.53851 6.14193 1.31537 6.28103 1.12252C6.42012 0.929682 6.60306 0.772668 6.81476 0.664431C7.02647 0.556194 7.26087 0.499834 7.49864 0.5H8.24864C8.34716 0.499923 8.44473 0.519257 8.53578 0.556898C8.62683 0.594539 8.70956 0.64975 8.77927 0.719375L13.0599 5H18.7486C19.7432 5 20.697 5.39509 21.4003 6.09835C22.1036 6.80161 22.4986 7.75544 22.4986 8.75ZM20.9986 8.75C20.9986 8.15326 20.7616 7.58097 20.3396 7.15901C19.9177 6.73705 19.3454 6.5 18.7486 6.5H12.7486C12.55 6.49991 12.3595 6.42101 12.219 6.28063L7.93833 2H7.49864L8.66958 5.51281C8.70714 5.62548 8.7174 5.74546 8.69953 5.86288C8.68165 5.98029 8.63615 6.09178 8.56677 6.18817C8.49738 6.28456 8.4061 6.36309 8.30043 6.4173C8.19475 6.47152 8.07772 6.49986 7.95895 6.5H4.49864C4.40012 6.50008 4.30255 6.48074 4.2115 6.4431C4.12046 6.40546 4.03772 6.35025 3.96802 6.28063L1.93833 4.25H1.49864L2.8177 8.64688C2.95485 9.11166 3.23928 9.51931 3.62817 9.80844C4.01706 10.0976 4.48936 10.2525 4.97395 10.25H20.9986V8.75Z" fill="#808080"/>
</svg>
