<svg width="24" height="24" viewBox="0 0 24 24" fill="none" xmlns="http://www.w3.org/2000/svg">
<path d="M20.0002 13.9998C20.3855 14 20.7558 14.1484 21.0346 14.4142C21.3134 14.6801 21.4792 15.043 21.4978 15.4277C21.5163 15.8125 21.386 16.1896 21.1341 16.481C20.8821 16.7724 20.5277 16.9556 20.1442 16.9928L20.0002 16.9998H7.62124L9.06124 18.4398C9.334 18.7116 9.4918 19.0779 9.50197 19.4628C9.51213 19.8477 9.37388 20.2218 9.11584 20.5076C8.8578 20.7934 8.49973 20.969 8.11577 20.9981C7.73181 21.0272 7.35138 20.9075 7.05324 20.6638L6.93924 20.5608L3.11024 16.7308C2.13624 15.7568 2.77024 14.1138 4.10124 14.0058L4.24124 13.9998H20.0002ZM14.9402 3.43981C15.2026 3.17721 15.553 3.02122 15.9237 3.00201C16.2945 2.9828 16.6591 3.10173 16.9472 3.33581L17.0612 3.43881L20.8902 7.26881C21.8642 8.24281 21.2302 9.88581 19.8992 9.99381L19.7592 9.99981H4.00024C3.61502 9.99962 3.24464 9.85124 2.96585 9.5854C2.68706 9.31957 2.52122 8.95667 2.50271 8.5719C2.4842 8.18713 2.61443 7.80998 2.86641 7.51861C3.11839 7.22724 3.47282 7.04398 3.85624 7.00681L4.00024 6.99981H16.3792L14.9392 5.55981C14.6583 5.27856 14.5006 4.89731 14.5006 4.49981C14.5006 4.10231 14.6593 3.72106 14.9402 3.43981Z" fill="#1A1A1A"/>
</svg>
