<svg width="20" height="12" viewBox="0 0 20 12" fill="none" xmlns="http://www.w3.org/2000/svg">
<path d="M7.5013 8.64606C7.57314 8.69249 7.63013 8.74764 7.66902 8.80833C7.7079 8.86903 7.72792 8.93408 7.72792 8.99979C7.72792 9.06549 7.7079 9.13055 7.66902 9.19124C7.63013 9.25194 7.57314 9.30708 7.5013 9.35351L4.41055 11.3534C4.33879 11.3999 4.25357 11.4367 4.15976 11.4619C4.06596 11.4871 3.96541 11.5 3.86387 11.5C3.76233 11.5 3.66178 11.4871 3.56798 11.4619C3.47417 11.4367 3.38896 11.3999 3.31719 11.3534L0.226441 9.35351C0.15465 9.30706 0.0977029 9.25191 0.0588501 9.19122C0.0199973 9.13053 0 9.06548 0 8.99979C0 8.93409 0.0199973 8.86904 0.0588501 8.80835C0.0977029 8.74766 0.15465 8.69251 0.226441 8.64606C0.371429 8.55225 0.568074 8.49954 0.773118 8.49954C0.874645 8.49954 0.975178 8.51248 1.06898 8.53762C1.16278 8.56276 1.248 8.59961 1.31979 8.64606L3.09118 9.79285V1.00036C3.09118 0.867759 3.17259 0.740591 3.3175 0.64683C3.4624 0.553068 3.65894 0.500393 3.86387 0.500393C4.0688 0.500393 4.26534 0.553068 4.41024 0.64683C4.55515 0.740591 4.63656 0.867759 4.63656 1.00036V9.79285L6.40795 8.64606C6.47971 8.59958 6.56493 8.5627 6.65873 8.53754C6.75253 8.51238 6.85308 8.49943 6.95462 8.49943C7.05617 8.49943 7.15671 8.51238 7.25052 8.53754C7.34432 8.5627 7.42954 8.59958 7.5013 8.64606ZM16.7736 2.64649L13.6828 0.646633C13.611 0.600148 13.5258 0.563271 13.432 0.538111C13.3382 0.512951 13.2377 0.5 13.1361 0.5C13.0346 0.5 12.934 0.512951 12.8402 0.538111C12.7464 0.563271 12.6612 0.600148 12.5895 0.646633L9.4987 2.64649C9.35371 2.7403 9.27226 2.86754 9.27226 3.00021C9.27226 3.13289 9.35371 3.26013 9.4987 3.35394C9.64369 3.44775 9.84033 3.50046 10.0454 3.50046C10.2504 3.50046 10.4471 3.44775 10.5921 3.35394L12.3634 2.20715V10.9996C12.3634 11.1322 12.4448 11.2594 12.5898 11.3532C12.7347 11.4469 12.9312 11.4996 13.1361 11.4996C13.3411 11.4996 13.5376 11.4469 13.6825 11.3532C13.8274 11.2594 13.9088 11.1322 13.9088 10.9996V2.20715L15.6802 3.35394C15.8252 3.44775 16.0218 3.50046 16.2269 3.50046C16.4319 3.50046 16.6286 3.44775 16.7736 3.35394C16.9185 3.26013 17 3.13289 17 3.00021C17 2.86754 16.9185 2.7403 16.7736 2.64649Z" fill="#3498DB"/>
</svg>
